<svg width="278" height="60" viewBox="0 0 278 60" fill="none" xmlns="http://www.w3.org/2000/svg">
<g clip-path="url(#clip0_1090_358)">
<path d="M62.7111 60C54.6751 59.9923 46.9704 56.8296 41.2878 51.206C35.6051 45.5823 32.4087 37.9571 32.3999 30.0037C32.4077 22.0492 35.6036 14.4227 41.2863 8.7977C46.9689 3.1727 54.6741 0.00870433 62.7111 2.00211e-06C67.0861 -0.00158044 71.4096 0.934908 75.384 2.74504C79.3584 4.55517 82.8894 7.19597 85.7341 10.4858L86.1032 10.9167L82.2285 15.3397L81.7303 14.737C79.439 11.9293 76.5414 9.66515 73.2501 8.11101C69.9589 6.55686 66.3577 5.75217 62.7111 5.75603C56.211 5.76376 49.9794 8.32282 45.3832 12.8719C40.7869 17.4209 38.2013 23.5886 38.1935 30.0219C38.2023 36.4543 40.7884 42.6206 45.3847 47.1683C49.9809 51.716 56.212 54.2737 62.7111 54.2805C68.3212 54.2863 73.7631 52.3849 78.1261 48.8944C82.4891 45.404 85.5084 40.5362 86.6788 35.1059H84.0625C82.8895 39.8402 80.1508 44.0504 76.2819 47.0669C72.413 50.0833 67.6362 51.7329 62.7111 51.7531C56.8893 51.7473 51.3076 49.456 47.1906 45.382C43.0736 41.308 40.7576 35.7839 40.7508 30.0219C40.7567 24.2589 43.0721 18.7336 47.1891 14.6582C51.306 10.5828 56.8883 8.29019 62.7111 8.28342C67.3334 8.2739 71.8388 9.72064 75.5751 12.4142L76.0622 12.7794L73.0731 17.7502L72.4827 17.3046C69.6816 15.171 66.2457 14.0152 62.7111 14.0175C58.4252 14.0224 54.3164 15.7098 51.2862 18.7096C48.256 21.7094 46.552 25.7764 46.5481 30.0183C46.5539 34.2588 48.2588 38.324 51.2888 41.3222C54.3188 44.3204 58.4265 46.0069 62.7111 46.0117C66.096 46.0041 69.3937 44.948 72.1415 42.9915C74.8893 41.035 76.9494 38.2763 78.0327 35.1023H75.3131C74.2867 37.5785 72.5417 39.6981 70.2988 41.1932C68.0558 42.6884 65.4153 43.492 62.7111 43.5026C59.1032 43.4997 55.6438 42.0801 53.0923 39.5555C50.5408 37.0308 49.1056 33.6074 49.1017 30.0365C49.1046 26.4647 50.5393 23.0399 53.0908 20.5139C55.6423 17.9879 59.1022 16.5671 62.7111 16.5632C63.9806 16.5625 65.2439 16.7383 66.464 17.0855L67.1172 17.2717L65.368 22.7502L64.7555 22.5822C64.089 22.4036 63.4015 22.3139 62.7111 22.3156C60.6401 22.3175 58.6546 23.1328 57.1906 24.5825C55.7265 26.0322 54.9036 27.9978 54.9027 30.0475C54.9056 32.0963 55.7292 34.0603 57.1929 35.509C58.6567 36.9577 60.6411 37.7729 62.7111 37.7757C63.826 37.7797 64.9287 37.5456 65.9438 37.0892C66.959 36.6329 67.8627 35.9651 68.5932 35.1315H62.7111C61.3493 35.1296 60.0439 34.5933 59.081 33.6403C58.1181 32.6873 57.5763 31.3953 57.5744 30.0475V29.3901H93.0223V30.0475C93.0205 31.5622 92.9058 33.0747 92.6791 34.5727C90.4465 49.0504 77.5641 60 62.7111 60Z" fill="#405189"/>
<path d="M0 45.482L16.5062 29.6785C18.4878 27.7793 20.8865 25.4601 20.8865 22.5493C20.8865 19.1051 18.0081 17.0233 14.7054 17.0233C11.1628 17.0233 8.64241 19.2804 8.16269 22.7282L0.597808 22.1329C1.33584 14.3498 7.02243 10.252 14.7054 10.252C22.3293 10.252 28.4513 14.1124 28.4513 22.195C28.4513 27.4799 25.6911 31.1029 21.9086 34.5507L8.76419 46.6033H28.4513V53.0204H0V45.482Z" fill="#0AB39C"/>
<path d="M97.5425 22.3667H104.746V26.881H104.867C106.425 23.6158 109.609 21.6545 113.388 21.6545C114.265 21.6724 115.134 21.8125 115.971 22.0709V28.9591C114.836 28.6422 113.666 28.4632 112.488 28.4259C105.705 28.4259 104.738 34.0687 104.738 35.6136V50.8839H97.5425V22.3667Z" fill="#405189"/>
<path d="M134.039 21.6545C142.74 21.6545 149.703 27.6553 149.703 36.629C149.703 45.6027 142.74 51.6034 134.039 51.6034C125.337 51.6034 118.37 45.6027 118.37 36.629C118.37 27.6553 125.333 21.6545 134.039 21.6545ZM134.039 45.179C139.319 45.179 142.5 41.0811 142.5 36.6253C142.5 32.1695 139.319 28.068 134.039 28.068C128.758 28.068 125.588 32.1695 125.588 36.6253C125.588 41.0811 128.754 45.179 134.039 45.179Z" fill="#405189"/>
<path d="M152.526 22.3667H160.327L166.571 42.3265H166.689L172.512 22.3667H180.317L186.561 42.3265H186.679L192.683 22.3667H199.945L190.166 50.8839H183.026L176.173 31.4098H176.051L169.988 50.8985H162.545L152.526 22.3667Z" fill="#405189"/>
<path d="M205.971 8.82031H213.532V25.5661H233.4V8.82031H240.965V50.8839H233.4V32.3484H213.532V50.8839H205.971V8.82031Z" fill="#0AB39C"/>
<path d="M245.943 8.82031H260.704C268.867 8.82031 276.55 11.4354 276.55 20.8729C276.55 26.9321 273.007 31.3879 266.704 32.279L277.993 50.8839H268.87L259.025 33.0606H253.49V50.8839H245.925L245.943 8.82031ZM259.39 26.6435C263.652 26.6435 268.616 26.2783 268.616 20.8218C268.616 15.8327 263.933 15.2374 260.032 15.2374H253.49V26.6618L259.39 26.6435Z" fill="#0AB39C"/>
</g>
<defs>
<clipPath id="clip0_1090_358">
<rect width="278" height="60" fill="white"/>
</clipPath>
</defs>
</svg>
