<svg width="16" height="16" viewBox="0 0 16 16" fill="none" xmlns="http://www.w3.org/2000/svg">
<g clip-path="url(#clip0_2374_300)">
<path d="M11.3333 6.66667C8.76067 6.66667 6.66667 8.76 6.66667 11.3333C6.66667 13.9067 8.76067 16 11.3333 16C13.906 16 16 13.9067 16 11.3333C16 8.76 13.906 6.66667 11.3333 6.66667ZM11.3333 14.6667C9.49533 14.6667 8 13.1713 8 11.3333C8 9.49533 9.49533 8 11.3333 8C13.1713 8 14.6667 9.49533 14.6667 11.3333C14.6667 13.1713 13.1713 14.6667 11.3333 14.6667ZM12.4713 11.5287C12.732 11.7893 12.732 12.2107 12.4713 12.4713C12.3413 12.6013 12.1707 12.6667 12 12.6667C11.8293 12.6667 11.6587 12.6013 11.5287 12.4713L10.862 11.8047C10.7367 11.6793 10.6667 11.51 10.6667 11.3333V10C10.6667 9.632 10.9647 9.33333 11.3333 9.33333C11.702 9.33333 12 9.632 12 10V11.0573L12.4713 11.5287ZM6 14.6667H3.33333C2.23067 14.6667 1.33333 13.7693 1.33333 12.6667V9.33333H5.33333C5.702 9.33333 6 9.03467 6 8.66667C6 8.29867 5.702 8 5.33333 8H1.33333V6C1.33333 4.89733 2.23067 4 3.33333 4H12.6667C13.7693 4 14.6667 4.89733 14.6667 6C14.6667 6.368 14.9647 6.66667 15.3333 6.66667C15.702 6.66667 16 6.368 16 6C16 4.162 14.5047 2.66667 12.6667 2.66667H11.9327C11.6227 1.14733 10.276 0 8.66667 0H7.33333C5.724 0 4.37667 1.14733 4.06733 2.66667H3.33333C1.49533 2.66667 0 4.162 0 6V12.6667C0 14.5047 1.49533 16 3.33333 16H6C6.36867 16 6.66667 15.7013 6.66667 15.3333C6.66667 14.9653 6.36867 14.6667 6 14.6667ZM7.33333 1.33333H8.66667C9.536 1.33333 10.2767 1.89067 10.552 2.66667H5.448C5.72333 1.89067 6.464 1.33333 7.33333 1.33333Z" fill="#F672A7" fill-opacity="0.5"/>
</g>
<defs>
<clipPath id="clip0_2374_300">
<rect width="16" height="16" fill="white"/>
</clipPath>
</defs>
</svg>
