<svg width="23" height="24" viewBox="0 0 23 24" fill="none" xmlns="http://www.w3.org/2000/svg">
<path d="M21.0833 14.3748C21.0833 13.6123 20.7804 12.881 20.2413 12.3418C19.7021 11.8027 18.9708 11.4998 18.2083 11.4998V9.58309C18.2054 8.96094 18.0008 8.35653 17.6251 7.86059C17.2494 7.36466 16.723 7.00397 16.1249 6.83267L15.4876 3.64142C15.4434 3.4248 15.3256 3.23013 15.1543 3.0904C14.983 2.95068 14.7686 2.87449 14.5475 2.87476H14.2025C13.9814 2.87449 13.767 2.95068 13.5957 3.0904C13.4243 3.23013 13.3066 3.4248 13.2624 3.64142L12.65 6.70809H9.82292L10.5417 3.83309C10.5417 3.57892 10.4407 3.33517 10.261 3.15545C10.0813 2.97572 9.8375 2.87476 9.58333 2.87476H7.66667C7.4125 2.87476 7.16875 2.97572 6.98902 3.15545C6.8093 3.33517 6.70833 3.57892 6.70833 3.83309L7.43283 6.73205C6.71511 6.78906 6.04508 7.1139 5.55579 7.64207C5.0665 8.17024 4.79374 8.86311 4.79167 9.58309V11.4998C4.02917 11.4998 3.2979 11.8027 2.75873 12.3418C2.21957 12.881 1.91667 13.6123 1.91667 14.3748V21.0927H0V23.0093H23V21.0927H21.0833V14.3748ZM6.70833 9.58309C6.70833 9.32892 6.8093 9.08517 6.98902 8.90545C7.16875 8.72572 7.4125 8.62476 7.66667 8.62476H15.3333C15.5875 8.62476 15.8313 8.72572 16.011 8.90545C16.1907 9.08517 16.2917 9.32892 16.2917 9.58309V11.4998H6.70833V9.58309ZM4.79167 13.4164H18.2083C18.4625 13.4164 18.7063 13.5174 18.886 13.6971C19.0657 13.8768 19.1667 14.1206 19.1667 14.3748V16.2723C18.2697 16.1764 17.7292 15.6014 17.7292 15.3331H15.8125C15.8125 15.6628 15.1589 16.2914 14.1354 16.2914C13.0918 16.2914 12.4583 15.6263 12.4583 15.3331H10.5417C10.5417 15.6628 9.88808 16.2914 8.86458 16.2914C7.82096 16.2914 7.1875 15.6263 7.1875 15.3331H5.27083C5.27083 15.6359 4.71596 16.1841 3.83333 16.2732V14.3748C3.83333 14.1206 3.9343 13.8768 4.11402 13.6971C4.29375 13.5174 4.5375 13.4164 4.79167 13.4164ZM3.83333 18.188C4.71375 18.1489 5.55635 17.8189 6.22917 17.2498C6.96839 17.866 7.89962 18.2046 8.86199 18.2073C9.82436 18.2099 10.7574 17.8763 11.5 17.2641C12.2426 17.8763 13.1756 18.2099 14.138 18.2073C15.1004 18.2046 16.0316 17.866 16.7708 17.2498C17.4438 17.8186 18.2864 18.1482 19.1667 18.187V21.0927H3.83333V18.188Z" fill="#F06548"/>
<path d="M8.6263 1.91667C9.15558 1.91667 9.58464 1.48761 9.58464 0.958333C9.58464 0.42906 9.15558 0 8.6263 0C8.09703 0 7.66797 0.42906 7.66797 0.958333C7.66797 1.48761 8.09703 1.91667 8.6263 1.91667Z" fill="#F06548"/>
<path d="M14.3743 1.91667C14.9036 1.91667 15.3327 1.48761 15.3327 0.958333C15.3327 0.42906 14.9036 0 14.3743 0C13.8451 0 13.416 0.42906 13.416 0.958333C13.416 1.48761 13.8451 1.91667 14.3743 1.91667Z" fill="#F06548"/>
</svg>
