<svg width="230" height="92" viewBox="0 0 230 92" fill="none" xmlns="http://www.w3.org/2000/svg">
<path d="M18.7633 91.9985L213.426 90.1413C216.037 90.1686 218.619 89.5954 220.976 88.4656C223.332 87.3358 225.401 85.6794 227.023 83.6228C228.572 81.571 229.558 79.1462 229.882 76.591C230.207 74.0358 229.858 71.4398 228.87 69.0628C223.716 54.2057 205.796 59.1271 205.796 59.1271C205.796 59.1271 205.907 33.1272 179.267 26.1258C152.627 19.1244 134.042 40.1472 134.042 40.1472C134.042 40.1472 126.523 -7.06129 79.2293 0.905833C27.6678 9.5601 26.4301 59.1457 26.4301 59.1457C26.4301 59.1457 10.1728 55.9886 1.98872 69.0814C-3.09168 77.2156 2.5799 84.1056 7.62336 88.1728C10.7871 90.7006 14.7223 92.052 18.7633 91.9985Z" fill="white"/>
</svg>
