<svg width="169" height="59" viewBox="0 0 169 59" fill="none" xmlns="http://www.w3.org/2000/svg">
<path d="M147.858 59H7.49408C6.36976 59.0034 5.25916 58.7509 4.24507 58.2612C3.23097 57.7715 2.33955 57.0573 1.63719 56.1717C0.934835 55.2861 0.439663 54.2521 0.18862 53.1467C-0.0624222 52.0412 -0.0628771 50.8929 0.187282 49.7872C1.35637 44.9045 4.90017 38.953 14.2894 34.1624C33.762 24.2126 49.1063 34.1624 49.1063 34.1624C49.1063 34.1624 53.9105 -1.85945 91.851 0.0752317C129.426 1.91778 136.258 34.0887 136.258 34.0887C136.258 34.0887 142.341 22.149 159.64 34.0887C176.939 46.0284 168.664 59 147.858 59Z" fill="white"/>
</svg>
