<svg width="114" height="40" viewBox="0 0 114 40" fill="none" xmlns="http://www.w3.org/2000/svg">
<path d="M99.7383 40H5.05518C4.29676 40.0023 3.5476 39.8311 2.86354 39.4991C2.17947 39.1671 1.57816 38.6829 1.10438 38.0825C0.630599 37.4821 0.296577 36.7811 0.127235 36.0316C-0.0421073 35.2822 -0.0424141 34.5036 0.126332 33.754C0.914948 30.4437 3.30544 26.4088 9.639 23.1609C22.7744 16.4153 33.125 23.1609 33.125 23.1609C33.125 23.1609 36.3657 -1.26064 61.9587 0.0510046C87.3053 1.30019 91.9137 23.111 91.9137 23.111C91.9137 23.111 96.017 15.0163 107.686 23.111C119.355 31.2057 113.773 40 99.7383 40Z" fill="white"/>
</svg>
