<svg width="24" height="24" viewBox="0 0 24 24" fill="none" xmlns="http://www.w3.org/2000/svg">
<g clip-path="url(#clip0_834_1745)">
<path d="M24 16V24H16C13.045 24 10.465 22.385 9.08 19.996C9.849 19.99 10.598 19.905 11.322 19.748C12.423 21.119 14.109 22 16 22H22V16C22 14.109 21.119 12.423 19.748 11.322C19.904 10.598 19.99 9.849 19.996 9.08C22.385 10.465 24 13.045 24 16ZM12.062 17.452C11.105 17.8 10.077 18 9 18H0V9C0 4.037 4.037 0 9 0C13.963 0 18 4.037 18 9C18 12.132 16.39 14.892 13.957 16.504L15.489 17.989L19.301 14.285L20.699 15.715L16.906 19.422C16.521 19.807 16.012 20 15.503 20C14.99 20 14.477 19.805 14.086 19.414L12.062 17.452ZM9 16C12.859 16 16 12.859 16 9C16 5.141 12.859 2 9 2C5.141 2 2 5.141 2 9V16H9ZM9.536 4.048C8.65 3.887 7.753 4.129 7.072 4.701C6.39 5.273 6 6.111 6 7H8C8 6.703 8.131 6.424 8.358 6.233C8.587 6.039 8.88 5.96 9.19 6.017C9.581 6.085 9.914 6.418 9.983 6.811C10.076 7.341 9.77 7.716 9.481 7.876C8.636 8.341 8 9.471 8 10.504V10.999H10V10.504C10 10.192 10.26 9.731 10.447 9.628C11.572 9.007 12.176 7.735 11.953 6.465C11.741 5.253 10.746 4.258 9.536 4.047V4.048ZM8 14H10V12H8V14Z" fill="#405189"/>
</g>
<defs>
<clipPath id="clip0_834_1745">
<rect width="24" height="24" fill="white"/>
</clipPath>
</defs>
</svg>
