<svg width="16" height="16" viewBox="0 0 16 16" fill="none" xmlns="http://www.w3.org/2000/svg">
<path d="M10.0161 5C9.30969 5.0006 8.61148 5.15136 7.96777 5.44229C7.32406 5.73322 6.74955 6.15767 6.28234 6.6875C5.98453 6.54273 5.67099 6.43284 5.34796 6.36L6.20359 4.65438C6.25108 4.55928 6.27354 4.45364 6.26884 4.34745C6.26414 4.24126 6.23243 4.13802 6.17671 4.0475C5.97831 3.75833 5.71142 3.52276 5.39986 3.3618C5.08829 3.20084 4.74173 3.11949 4.39109 3.125C4.04097 3.12 3.69504 3.2016 3.38406 3.36254C3.07309 3.52349 2.8067 3.75878 2.60859 4.0475C2.55287 4.13802 2.52116 4.24126 2.51646 4.34745C2.51176 4.45364 2.53422 4.55928 2.58171 4.65438L3.43421 6.35875C2.79107 6.50036 2.18819 6.78534 1.67054 7.19243C1.15288 7.59952 0.733812 8.11822 0.444569 8.70986C0.155327 9.30149 0.00337889 9.95078 5.57115e-05 10.6093C-0.00326747 11.2679 0.14212 11.9187 0.425377 12.5132C0.708633 13.1077 1.12245 13.6306 1.63597 14.0429C2.14949 14.4552 2.74946 14.7462 3.39114 14.8943C4.03282 15.0424 4.69966 15.0438 5.34193 14.8982C5.98419 14.7527 6.58531 14.464 7.10046 14.0538C7.74007 14.5156 8.47988 14.8195 9.25942 14.9407C10.039 15.0618 10.8361 14.9968 11.5857 14.7509C12.3353 14.5051 13.0161 14.0853 13.5725 13.526C14.1288 12.9666 14.5449 12.2836 14.7867 11.5326C15.0285 10.7817 15.0892 9.98423 14.9639 9.20535C14.8385 8.42647 14.5306 7.68831 14.0653 7.05121C13.6001 6.4141 12.9906 5.89613 12.2869 5.53963C11.5831 5.18313 10.805 4.99821 10.0161 5ZM7.03734 12.2687C6.6223 11.7295 6.3633 11.0866 6.28858 10.4103C6.21386 9.73388 6.32628 9.04998 6.61359 8.43312C7.10879 8.92961 7.42048 9.57971 7.49748 10.2767C7.57448 10.9737 7.41222 11.6761 7.03734 12.2687ZM1.26609 10.625C1.26477 10.1127 1.38975 9.60795 1.62998 9.15545C1.87021 8.70295 2.21827 8.31664 2.64336 8.03071C3.06846 7.74478 3.55749 7.56804 4.06716 7.51614C4.57684 7.46423 5.09145 7.53876 5.56546 7.73313C5.11949 8.60147 4.93893 9.58185 5.04629 10.5521C5.15365 11.5223 5.54419 12.4395 6.16921 13.1894C5.7012 13.5159 5.15259 13.7077 4.58311 13.744C4.01362 13.7802 3.4451 13.6596 2.93945 13.3951C2.43379 13.1307 2.01039 12.7325 1.71534 12.2441C1.42028 11.7557 1.26489 11.1956 1.26609 10.625ZM10.0161 13.75C9.28793 13.7502 8.57566 13.5371 7.96734 13.1369C8.5827 12.267 8.85757 11.2017 8.73984 10.1427C8.62211 9.0837 8.11997 8.1047 7.32859 7.39125C7.75956 6.94622 8.29407 6.61489 8.88436 6.42688C9.47465 6.23886 10.1023 6.20002 10.7113 6.31381C11.3202 6.42761 11.8915 6.6905 12.3741 7.079C12.8566 7.46749 13.2354 7.96949 13.4766 8.54012C13.7178 9.11075 13.8138 9.73225 13.7562 10.3491C13.6985 10.9659 13.4889 11.5588 13.1462 12.0748C12.8034 12.5909 12.3381 13.014 11.7919 13.3063C11.2457 13.5986 10.6356 13.7511 10.0161 13.75ZM6.33171 2.22062L6.95671 0.970625C7.03081 0.822269 7.1608 0.709424 7.3181 0.656914C7.39598 0.630914 7.47823 0.620509 7.56013 0.626293C7.64204 0.632077 7.722 0.653937 7.79546 0.690625C7.86892 0.727313 7.93443 0.778111 7.98826 0.840117C8.04209 0.902124 8.08317 0.974125 8.10917 1.05201C8.13517 1.1299 8.14558 1.21214 8.1398 1.29405C8.13401 1.37595 8.11215 1.45592 8.07546 1.52938L7.45046 2.77938C7.41378 2.85283 7.36298 2.91835 7.30097 2.97217C7.23896 3.026 7.16696 3.06709 7.08908 3.09309C7.01119 3.11909 6.92895 3.12949 6.84704 3.12371C6.76514 3.11792 6.68517 3.09606 6.61171 3.05938C6.46336 2.98528 6.35051 2.85529 6.298 2.69799C6.24549 2.54069 6.25762 2.36898 6.33171 2.22062ZM0.706714 1.52938C0.632619 1.38061 0.620657 1.20849 0.67346 1.05091C0.726264 0.893316 0.839506 0.763157 0.988276 0.689062C1.13705 0.614968 1.30916 0.603006 1.46675 0.655809C1.62434 0.708613 1.75449 0.821855 1.82859 0.970625L2.45359 2.22062C2.49028 2.29408 2.51214 2.37405 2.51792 2.45595C2.5237 2.53786 2.5133 2.6201 2.4873 2.69799C2.4613 2.77588 2.42021 2.84788 2.36639 2.90988C2.31256 2.97189 2.24705 3.02269 2.17359 3.05938C2.10013 3.09606 2.02017 3.11792 1.93826 3.12371C1.85635 3.12949 1.77411 3.11909 1.69622 3.09309C1.53893 3.04058 1.40893 2.92773 1.33484 2.77938L0.706714 1.52938ZM3.76609 1.875V0.625C3.76609 0.45924 3.83194 0.300269 3.94915 0.183058C4.06636 0.065848 4.22533 0 4.39109 0C4.55685 0 4.71582 0.065848 4.83303 0.183058C4.95024 0.300269 5.01609 0.45924 5.01609 0.625V1.875C5.01609 2.04076 4.95024 2.19973 4.83303 2.31694C4.71582 2.43415 4.55685 2.5 4.39109 2.5C4.22533 2.5 4.06636 2.43415 3.94915 2.31694C3.83194 2.19973 3.76609 2.04076 3.76609 1.875Z" fill="#F672A7" fill-opacity="0.5"/>
</svg>
