<svg width="14" height="16" viewBox="0 0 14 16" fill="none" xmlns="http://www.w3.org/2000/svg">
<path d="M13.3333 2.66667H10V1.33333C10 0.979711 9.85952 0.640573 9.60948 0.390524C9.35943 0.140476 9.02029 0 8.66667 0L4.66667 0C4.31304 0 3.97391 0.140476 3.72386 0.390524C3.47381 0.640573 3.33333 0.979711 3.33333 1.33333V2.66667H0V4H1.33333V14C1.33333 14.5304 1.54405 15.0391 1.91912 15.4142C2.29419 15.7893 2.8029 16 3.33333 16H10C10.5304 16 11.0391 15.7893 11.4142 15.4142C11.7893 15.0391 12 14.5304 12 14V4H13.3333V2.66667ZM4.66667 1.33333H8.66667V2.66667H4.66667V1.33333ZM10.6667 14C10.6667 14.1768 10.5964 14.3464 10.4714 14.4714C10.3464 14.5964 10.1768 14.6667 10 14.6667H3.33333C3.15652 14.6667 2.98695 14.5964 2.86193 14.4714C2.7369 14.3464 2.66667 14.1768 2.66667 14V4H10.6667V14Z" fill="#F06548"/>
<path d="M5.99983 6.66626H4.6665V11.9996H5.99983V6.66626Z" fill="#F06548"/>
<path d="M8.66684 6.66626H7.3335V11.9996H8.66684V6.66626Z" fill="#F06548"/>
</svg>
