<svg width="17" height="17" viewBox="0 0 17 17" fill="none" xmlns="http://www.w3.org/2000/svg">
<g clip-path="url(#clip0_1095_123)">
<path d="M16.4838 6.67187C15.8444 5.62476 15.0378 4.68942 14.0961 3.90299L16.0794 1.91966C16.2084 1.78607 16.2798 1.60714 16.2782 1.42142C16.2766 1.23569 16.2021 1.05804 16.0708 0.926704C15.9394 0.795374 15.7618 0.720879 15.576 0.719265C15.3903 0.717651 15.2114 0.789047 15.0778 0.918076L12.9209 3.07778C11.5839 2.28362 10.0553 1.8697 8.50022 1.8807C4.11493 1.8807 1.61593 4.88262 0.516594 6.67187C0.176968 7.22118 -0.00292969 7.85425 -0.00292969 8.50008C-0.00292969 9.1459 0.176968 9.77897 0.516594 10.3283C1.15605 11.3754 1.96265 12.3107 2.90439 13.0972L0.921053 15.0805C0.8534 15.1458 0.799437 15.224 0.762314 15.3104C0.725191 15.3968 0.705651 15.4898 0.704834 15.5838C0.704016 15.6779 0.721938 15.7712 0.757554 15.8582C0.79317 15.9453 0.845766 16.0243 0.912273 16.0909C0.97878 16.1574 1.05787 16.21 1.14492 16.2456C1.23197 16.2812 1.32524 16.2991 1.4193 16.2983C1.51335 16.2975 1.60629 16.2779 1.69271 16.2408C1.77913 16.2037 1.85729 16.1497 1.92264 16.0821L4.08447 13.9202C5.41987 14.7143 6.94661 15.1289 8.50022 15.1195C12.8855 15.1195 15.3845 12.1175 16.4838 10.3283C16.8235 9.77897 17.0034 9.1459 17.0034 8.50008C17.0034 7.85425 16.8235 7.22118 16.4838 6.67187ZM1.72359 9.58666C1.52182 9.26015 1.41494 8.8839 1.41494 8.50008C1.41494 8.11625 1.52182 7.74 1.72359 7.41349C2.66851 5.87924 4.80414 3.29737 8.50022 3.29737C9.67625 3.29078 10.8358 3.57421 11.8761 4.12258L10.4503 5.54845C9.77021 5.09696 8.9549 4.89466 8.14268 4.97587C7.33045 5.05708 6.57133 5.4168 5.99414 5.99399C5.41694 6.57119 5.05722 7.3303 4.97601 8.14253C4.8948 8.95476 5.0971 9.77007 5.54859 10.4501L3.91234 12.0864C3.04471 11.3849 2.30431 10.5393 1.72359 9.58666ZM10.6252 8.50008C10.6252 9.06366 10.4013 9.60416 10.0028 10.0027C9.60431 10.4012 9.0638 10.6251 8.50022 10.6251C8.18467 10.6239 7.87348 10.5512 7.59001 10.4126L10.4127 7.58987C10.5513 7.87334 10.624 8.18452 10.6252 8.50008ZM6.37522 8.50008C6.37522 7.93649 6.5991 7.39599 6.99762 6.99747C7.39613 6.59896 7.93663 6.37508 8.50022 6.37508C8.81577 6.3763 9.12695 6.44895 9.41043 6.58758L6.58772 9.41028C6.44909 9.12681 6.37644 8.81563 6.37522 8.50008ZM15.2768 9.58666C14.3319 11.1209 12.1963 13.7028 8.50022 13.7028C7.32419 13.7094 6.16468 13.4259 5.1243 12.8776L6.55018 11.4517C7.23023 11.9032 8.04554 12.1055 8.85776 12.0243C9.66999 11.9431 10.4291 11.5834 11.0063 11.0062C11.5835 10.429 11.9432 9.66985 12.0244 8.85762C12.1056 8.04539 11.9033 7.23008 11.4518 6.55003L13.0881 4.91378C13.9557 5.61523 14.6961 6.46082 15.2768 7.41349C15.4786 7.74 15.5855 8.11625 15.5855 8.50008C15.5855 8.8839 15.4786 9.26015 15.2768 9.58666Z" fill="#405189"/>
</g>
<defs>
<clipPath id="clip0_1095_123">
<rect width="17" height="17" fill="white"/>
</clipPath>
</defs>
</svg>
