<svg width="18" height="14" viewBox="0 0 18 14" fill="none" xmlns="http://www.w3.org/2000/svg">
<path d="M17.3307 4.91125C16.2045 3.07716 13.6429 0 9.14694 0C4.65101 0 2.08937 3.07716 0.96321 4.91125C0.615071 5.47434 0.430664 6.12327 0.430664 6.78529C0.430664 7.4473 0.615071 8.09623 0.96321 8.65932C2.08937 10.4934 4.65101 13.5706 9.14694 13.5706C13.6429 13.5706 16.2045 10.4934 17.3307 8.65932C17.6788 8.09623 17.8632 7.4473 17.8632 6.78529C17.8632 6.12327 17.6788 5.47434 17.3307 4.91125V4.91125ZM16.0927 7.8991C15.1255 9.47181 12.9364 12.1184 9.14694 12.1184C5.35749 12.1184 3.16834 9.47181 2.20119 7.8991C1.99435 7.56441 1.8848 7.17873 1.8848 6.78529C1.8848 6.39184 1.99435 6.00616 2.20119 5.67147C3.16834 4.09876 5.35749 1.45217 9.14694 1.45217C12.9364 1.45217 15.1255 4.09586 16.0927 5.67147C16.2995 6.00616 16.4091 6.39184 16.4091 6.78529C16.4091 7.17873 16.2995 7.56441 16.0927 7.8991V7.8991Z" fill="#405189"/>
<path d="M9.14704 3.15491C8.42901 3.15491 7.7271 3.36783 7.13008 3.76675C6.53305 4.16566 6.06773 4.73266 5.79295 5.39604C5.51817 6.05941 5.44628 6.78937 5.58636 7.49361C5.72644 8.19784 6.07221 8.84472 6.57993 9.35245C7.08766 9.86018 7.73454 10.2059 8.43878 10.346C9.14301 10.4861 9.87297 10.4142 10.5363 10.1394C11.1997 9.86465 11.7667 9.39933 12.1656 8.80231C12.5646 8.20528 12.7775 7.50338 12.7775 6.78534C12.7763 5.82285 12.3935 4.9001 11.7129 4.21951C11.0323 3.53892 10.1095 3.15606 9.14704 3.15491V3.15491ZM9.14704 8.96361C8.71622 8.96361 8.29508 8.83585 7.93686 8.5965C7.57865 8.35715 7.29946 8.01695 7.13459 7.61893C6.96972 7.2209 6.92658 6.78293 7.01063 6.36039C7.09468 5.93784 7.30214 5.54972 7.60678 5.24508C7.91141 4.94044 8.29954 4.73299 8.72208 4.64894C9.14462 4.56489 9.5826 4.60802 9.98062 4.77289C10.3786 4.93776 10.7188 5.21695 10.9582 5.57517C11.1975 5.93338 11.3253 6.35452 11.3253 6.78534C11.3253 7.36305 11.0958 7.9171 10.6873 8.32561C10.2788 8.73411 9.72475 8.96361 9.14704 8.96361Z" fill="#405189"/>
</svg>
