<svg width="24" height="12" viewBox="0 0 24 12" fill="none" xmlns="http://www.w3.org/2000/svg">
<path d="M6.49999 12H7.868C9.20518 12 9.29014 12 10.2861 12C11.1434 12 11.046 12 11.4655 12H17.5C17.7761 12 18 11.5523 18 11C18 10.4478 17.7761 10.0001 17.5 10.0001H11.4655C10.7148 10 10.7148 9.99994 9.42892 10C8.74073 10.0001 8.38957 10.0001 7.868 10H6.49999C6.22385 10 6 10.4477 6 11C6 11.5523 6.22385 12 6.49999 12Z" fill="#405189"/>
<path d="M2.79166 7H4.95766C7.07487 7 7.20938 7 8.7864 7C10.1437 7 9.98944 7 10.6537 7H20.2083C20.6456 7 21 6.55231 21 6.00005C21 5.44778 20.6456 5.0001 20.2083 5.0001H10.6537C9.46504 5.00005 9.46504 4.99994 7.42912 5.00005C6.3395 5.0001 5.78348 5.00013 4.95766 5.00005H2.79166C2.35443 5.00005 2 5.44774 2 6C2 6.55226 2.35443 7 2.79166 7Z" fill="#405189"/>
<path d="M0.999986 1.89474H3.73599C6.41036 1.89474 6.58028 1.89474 8.5723 1.89474C10.2868 1.89474 10.0919 1.89474 10.931 1.89474H23C23.5523 1.89474 24 1.47061 24 0.947414C24 0.424217 23.5523 9.02892e-05 23 9.02892e-05H10.931C9.42953 4.39946e-05 9.42953 -5.97633e-05 6.85784 4.57575e-05C5.48147 9.02892e-05 4.77914 0.000122393 3.73599 4.57575e-05H0.999986C0.447704 4.57575e-05 0 0.424172 0 0.947369C0 1.47057 0.447704 1.89474 0.999986 1.89474Z" fill="#405189"/>
</svg>
