<svg width="24" height="24" viewBox="0 0 24 24" fill="none" xmlns="http://www.w3.org/2000/svg">
<g clip-path="url(#clip0_2368_20)">
<path d="M24 15.9996V20.9996C24 21.7953 23.6839 22.5584 23.1213 23.121C22.5587 23.6836 21.7956 23.9996 21 23.9996H16C14.5971 23.9982 13.2192 23.6279 12.0047 22.9258C10.7901 22.2237 9.78145 21.2146 9.08 19.9996C9.83387 19.9943 10.5852 19.9111 11.322 19.7516C11.8832 20.4533 12.595 21.0197 13.4048 21.4088C14.2146 21.798 15.1016 21.9999 16 21.9996H21C21.2652 21.9996 21.5196 21.8943 21.7071 21.7068C21.8946 21.5192 22 21.2649 22 20.9996V15.9996C21.9998 15.1009 21.7972 14.2137 21.4074 13.4039C21.0175 12.5941 20.4504 11.8824 19.748 11.3216C19.9088 10.585 19.9933 9.83366 20 9.07965C21.215 9.7811 22.2241 10.7897 22.9262 12.0043C23.6282 13.2189 23.9986 14.5967 24 15.9996ZM17.977 9.65065C18.0705 8.36229 17.8856 7.06889 17.4348 5.85834C16.9841 4.6478 16.278 3.54847 15.3646 2.63506C14.4512 1.72166 13.3518 1.01558 12.1413 0.564802C10.9308 0.114026 9.63736 -0.0708809 8.349 0.0226448C6.06592 0.283377 3.95693 1.36982 2.41918 3.07739C0.881427 4.78496 0.0210272 6.99582 0 9.29365L0 14.3336C0 16.8656 1.507 17.9996 3 17.9996H8.7C10.9988 17.9799 13.211 17.12 14.9198 15.5822C16.6286 14.0444 17.7159 11.9347 17.977 9.65065ZM13.95 4.05065C14.6599 4.76215 15.2088 5.61784 15.5593 6.55983C15.9099 7.50182 16.054 8.50812 15.982 9.51065C15.7686 11.2943 14.9105 12.9385 13.5693 14.1336C12.2282 15.3287 10.4964 15.9924 8.7 15.9996H3C2.072 15.9996 2 14.7246 2 14.3336V9.29365C2.00834 7.49802 2.67265 5.76735 3.86792 4.42732C5.06319 3.0873 6.70699 2.23031 8.49 2.01764C8.656 2.00564 8.822 1.99964 8.988 1.99964C9.90927 1.99879 10.8217 2.17948 11.6731 2.5314C12.5245 2.88332 13.2982 3.39957 13.95 4.05065Z" fill="#0AB39C"/>
</g>
<defs>
<clipPath id="clip0_2368_20">
<rect width="24" height="24" fill="white"/>
</clipPath>
</defs>
</svg>
