<svg width="24" height="24" viewBox="0 0 24 24" fill="none" xmlns="http://www.w3.org/2000/svg">
<g clip-path="url(#clip0_2370_103)">
<path d="M19.5008 23.9999C19.301 24 19.1056 23.9403 18.94 23.8284C18.7744 23.7164 18.6462 23.5574 18.5718 23.3719L17.7278 21.2589L15.6118 20.3679C15.4303 20.2877 15.2766 20.1557 15.1698 19.9885C15.0631 19.8212 15.0081 19.6261 15.0118 19.4278C15.0156 19.2294 15.0779 19.0365 15.1908 18.8734C15.3038 18.7103 15.4624 18.5842 15.6468 18.5109L17.7348 17.7199L18.5718 15.6279C18.6488 15.4451 18.778 15.289 18.9433 15.1793C19.1085 15.0696 19.3025 15.0111 19.5008 15.0111C19.6992 15.0111 19.8932 15.0696 20.0584 15.1793C20.2237 15.289 20.3529 15.4451 20.4298 15.6279L21.2708 17.7279L23.3708 18.5689C23.554 18.6455 23.7105 18.7746 23.8205 18.9399C23.9305 19.1052 23.9892 19.2993 23.9892 19.4979C23.9892 19.6965 23.9305 19.8906 23.8205 20.0559C23.7105 20.2212 23.554 20.3503 23.3708 20.4269L21.2708 21.2679L20.4298 23.3679C20.3561 23.5542 20.2281 23.714 20.0625 23.8267C19.8969 23.9394 19.7012 23.9997 19.5008 23.9999ZM10.0008 20.9999C9.56882 21.0051 9.14673 20.8702 8.79773 20.6155C8.44874 20.3608 8.19162 19.9999 8.06484 19.5869L6.45084 14.5399L1.38784 12.8459C0.979206 12.7093 0.624561 12.4464 0.37513 12.0951C0.1257 11.7437 -0.00560389 11.3222 0.000183412 10.8914C0.00597072 10.4606 0.14855 10.0428 0.407327 9.69826C0.666104 9.35377 1.02768 9.10045 1.43984 8.9749L6.46284 7.4409L8.15484 2.3869C8.28064 1.97177 8.54087 1.61023 8.89459 1.35915C9.24831 1.10807 9.67545 0.981695 10.1088 0.999895C10.5409 1.00048 10.9612 1.14099 11.3068 1.40039C11.6524 1.6598 11.9046 2.02414 12.0258 2.43889L13.5578 7.4539L18.5878 9.0639C18.9936 9.19998 19.3463 9.46008 19.5962 9.80747C19.846 10.1549 19.9805 10.572 19.9805 10.9999C19.9805 11.4278 19.846 11.8449 19.5962 12.1923C19.3463 12.5397 18.9936 12.7998 18.5878 12.9359L13.5488 14.5479L11.9368 19.5869C11.8101 19.9999 11.5529 20.3608 11.2039 20.6155C10.855 20.8702 10.4329 21.0051 10.0008 20.9999ZM10.1128 3.0229L8.20084 8.5639C8.15043 8.71514 8.06459 8.85214 7.95048 8.96347C7.83636 9.0748 7.69729 9.15723 7.54484 9.2039L2.02384 10.8879L7.56484 12.8049C7.71392 12.8546 7.84919 12.9387 7.95969 13.0504C8.07019 13.1621 8.1528 13.2983 8.20084 13.4479L9.97084 18.9779L11.8008 13.4479C11.8494 13.2961 11.9335 13.158 12.0462 13.0453C12.159 12.9326 12.297 12.8484 12.4488 12.7999L17.9788 11.0309C17.9859 11.0289 17.9927 11.0259 17.9988 11.0219L12.4488 9.19989C12.2948 9.15064 12.155 9.06477 12.0415 8.94965C11.9279 8.83453 11.844 8.69358 11.7968 8.53889L10.1128 3.0229ZM20.5008 6.9999C20.2779 6.99989 20.0614 6.92539 19.8856 6.78824C19.7099 6.65109 19.585 6.45914 19.5308 6.2429L19.1738 4.8129L17.7408 4.4279C17.5255 4.37003 17.3356 4.24182 17.2015 4.06366C17.0673 3.8855 16.9966 3.66761 17.0005 3.44462C17.0044 3.22164 17.0827 3.00636 17.223 2.833C17.3633 2.65965 17.5576 2.53818 17.7748 2.4879L19.1748 2.1629L19.5308 0.756895C19.585 0.540668 19.7099 0.348747 19.8857 0.211614C20.0614 0.0744812 20.2779 0 20.5008 0C20.7238 0 20.9403 0.0744812 21.116 0.211614C21.2918 0.348747 21.4167 0.540668 21.4708 0.756895L21.8248 2.1749L23.2428 2.5299C23.4591 2.58409 23.651 2.70897 23.7881 2.88471C23.9253 3.06046 23.9997 3.27698 23.9997 3.4999C23.9997 3.72281 23.9253 3.93933 23.7881 4.11508C23.651 4.29082 23.4591 4.4157 23.2428 4.46989L21.8248 4.82489L21.4708 6.2429C21.4167 6.45914 21.2918 6.65109 21.1161 6.78824C20.9403 6.92539 20.7238 6.99989 20.5008 6.9999Z" fill="#F672A7"/>
</g>
<defs>
<clipPath id="clip0_2370_103">
<rect width="24" height="24" fill="white"/>
</clipPath>
</defs>
</svg>
