<svg width="673" height="514" viewBox="0 0 673 514" fill="none" xmlns="http://www.w3.org/2000/svg">
<g opacity="0.25" clip-path="url(#clip0_5076_3231)">
<path d="M339.004 166.512C333.301 180.495 329.712 195.509 326.303 210.221C323.362 222.895 320.999 235.903 320.815 248.957C320.471 273.594 329.755 294.315 344.905 312.229C362.979 337.211 383.89 359.739 405.112 382.234C406.569 383.783 408.645 384.379 413.096 384.684C417.547 384.988 434.519 383.777 446.939 376.461C459.358 369.146 458.51 358.96 476.652 353.94C494.794 348.92 527.407 350.033 537.495 344.657C549.1 338.47 555.243 325.385 566.545 318.865C577.202 312.742 590.055 313.876 601.765 312.665C613.85 311.413 625.155 307.398 633.982 298.415C637.37 294.985 641.436 289.914 636.865 285.729C634.267 283.324 630.259 281.862 627.164 280.257C623.568 278.395 619.935 276.601 616.266 274.874C587.366 261.255 557.183 250.761 528.501 236.582C470.413 207.864 416.669 170.829 358.509 142.219C358.036 142.003 357.523 141.89 357.004 141.889C356.485 141.887 355.971 141.996 355.497 142.209C355.023 142.421 354.6 142.733 354.256 143.122C353.912 143.511 353.655 143.97 353.503 144.466C352.899 144.411 352.291 144.516 351.74 144.768C351.188 145.021 350.713 145.413 350.36 145.906C345.714 152.264 341.898 159.189 339.004 166.512Z" fill="#F06548"/>
<path d="M261.458 332.995C273.486 332.313 285.892 328.13 297.313 324.524C309.858 320.57 322.145 315.835 334.227 310.675C359.145 300.028 383.233 287.586 407.718 276.003C418.897 270.722 431.01 266.524 441.619 260.168C450 255.151 456.389 246.683 453.111 236.535C451.18 230.612 446.706 225.652 442.031 220.888C407.797 185.902 384.055 161.606 349.274 130.312C337.222 119.469 324.374 107.192 311.696 97.0739C301.575 88.9879 290.68 78.3228 278.031 74.3378C267.955 71.1662 257.836 73.92 250.32 81.2997C242.152 89.2782 238.766 100.158 237.39 111.235C233.972 138.669 233.645 166.871 233.002 194.484C232.357 222.304 232.476 250.123 233.358 277.94C233.75 290.534 232.861 304.462 236.687 316.606C240.295 328.018 249.748 333.667 261.458 332.995Z" fill="#0AB39C"/>
<path d="M296.049 143.438L297.588 135.587" stroke="#063F58" stroke-width="6" stroke-linecap="round" stroke-linejoin="round"/>
<path d="M264.551 144.657L266.09 136.806" stroke="#063F58" stroke-width="6" stroke-linecap="round" stroke-linejoin="round"/>
<path d="M312.105 165.485C310.684 179.16 300.868 190.836 292.64 192.412C289.54 192.893 286.372 192.685 283.361 191.803C268.216 187.671 260.591 173.127 261.474 163.686C276.599 166.207 297.876 168.437 312.105 165.485Z" stroke="#063F58" stroke-width="6" stroke-linecap="round" stroke-linejoin="round"/>
<path d="M299.7 185.455C291.85 179.509 280.247 179.132 273.469 184.555" stroke="#063F58" stroke-width="6" stroke-linecap="round" stroke-linejoin="round"/>
<path d="M405.206 91.6803C405.006 92.3596 405.042 93.0869 405.31 93.7425C405.578 94.3981 406.061 94.9431 406.68 95.2878C406.146 95.9839 405.667 96.7198 405.245 97.4892C403.047 101.459 403.77 106.777 408.108 108.912C408.33 109.022 408.562 109.11 408.801 109.176C407.827 110.844 407.184 112.686 406.908 114.598C406.107 120.278 409.375 124.674 413.129 128.55C416.883 132.427 421.572 136.308 427.318 136.064C430.735 135.918 435.246 131.826 437.315 129.287C442.563 137.202 449.114 146.403 453.005 157.451C433.431 167.878 411.929 174.032 390.647 180.37C389.288 180.774 406.147 205.995 410.898 210.244C415.308 214.204 432.516 229.099 432.516 229.099C432.516 229.099 484.834 204.592 495.032 198.688C501.891 194.715 509.304 189.596 513.315 177.4C517.178 165.664 512.507 154.01 508.51 147.492C497.684 129.807 490.846 116.155 479.206 99.0074C469.777 85.1189 457.761 71.7781 440.335 69.0966C424.008 66.5824 409.471 75.5117 405.206 91.6803Z" fill="#0AB39C"/>
<path d="M55.6808 113.235C56.0231 114.483 56.5444 115.676 57.2287 116.775C53.2398 123.215 51.8445 130.523 51.0983 138.005C50.4582 144.336 49.6501 149.191 53.8066 154.487C57.963 159.784 62.5781 160.781 67.9651 160.336C71.8922 164.053 76.1859 167.363 80.7799 170.215C88.4753 175.205 96.2069 180.11 103.951 185.059L150.619 214.962L245.647 275.831C246.043 276.11 246.499 276.293 246.977 276.366C247.456 276.439 247.946 276.4 248.407 276.252C248.905 276.195 249.381 276.014 249.792 275.725C250.202 275.437 250.533 275.05 250.756 274.6C255.072 266.757 255.887 257.996 256.471 249.221C257.174 240.412 257.167 231.561 256.449 222.754C255.012 207.835 249.629 196.016 248.474 195.339C212.867 174.688 159.962 143.268 124.355 122.616C116.01 117.778 107.736 112.78 99.2886 108.105C96.4351 106.471 93.4597 105.06 90.3888 103.884C82.3527 99.1346 73.841 95.6589 64.4601 99.7232C59.528 101.903 54.1645 107.38 55.6808 113.235Z" fill="#0AB39C"/>
<path d="M287.954 310.109C287.587 310.633 287.394 311.258 287.401 311.897C287.188 326.554 285.396 341.166 285.507 355.833C285.598 367.921 286.669 376.928 291.481 388.11C296.894 400.688 306.54 410.689 317.395 418.771C329.649 427.903 343.434 434.81 356.83 442.051L400.998 465.923L401.262 466.034C403.242 467.763 405.13 469.595 406.918 471.523C409.847 474.704 412.112 478.004 416.363 479.42C416.844 479.553 417.349 479.576 417.84 479.487C418.332 479.398 418.797 479.2 419.201 478.907C419.606 478.614 419.939 478.234 420.177 477.795C420.414 477.356 420.55 476.87 420.574 476.371C423.265 453.471 423.018 410.738 417.556 407.606C412.093 404.474 370.988 382.974 350.404 366.615C348.86 342.914 349.16 317.383 348.616 293.616C348.618 293.161 348.522 292.711 348.335 292.297C348.149 291.882 347.876 291.512 347.534 291.212C348.405 289.25 347.536 286.531 344.801 286.623C324.407 287.312 304.814 294.724 289.071 307.705C288.701 307.982 288.405 308.347 288.21 308.766C288.015 309.186 287.927 309.647 287.954 310.109Z" fill="#0AB39C"/>
<path d="M369.466 284.13C378.029 299.427 388.146 313.8 399.658 327.022C442.563 376.404 500.915 408.298 560.192 433.913C563.417 441.142 567.262 448.079 571.682 454.645C573.168 456.85 577.527 457.371 578.134 454.005C582.092 432.139 584.291 409.99 584.712 387.772C584.731 387.339 584.663 386.907 584.513 386.501C584.363 386.095 584.133 385.724 583.837 385.408C583.804 384.895 583.643 384.398 583.371 383.963C583.098 383.527 582.721 383.167 582.274 382.913C526.875 349.188 472.887 311.618 430.827 261.642C431.094 259.749 430.056 257.761 427.616 257.909C416.935 258.572 406.825 261.49 396.749 265.036C387.73 268.212 378.292 271.126 372.411 279.12C370.155 279.314 368.036 281.579 369.466 284.13Z" fill="#0AB39C"/>
<path d="M89.5941 112.151C86.7761 112.8 84.062 113.837 81.5293 115.233C77.1988 117.522 73.6098 120.997 71.1828 125.252C68.7676 129.545 68.1075 134.607 69.3407 139.376C69.7639 141.117 70.6745 142.702 71.9659 143.944C72.6176 144.558 73.4198 144.987 74.2912 145.19C75.1627 145.393 76.0723 145.361 76.9276 145.099C77.9564 144.637 78.8775 143.966 79.6319 143.128C81.1129 141.917 82.2664 140.355 82.9868 138.583C82.5139 141.078 81.5477 147.949 87.608 153.189" stroke="#063F58" stroke-width="6" stroke-linecap="round" stroke-linejoin="round"/>
<path d="M56.5977 118.008C59.2818 122.588 64.0314 126.043 68.6705 128.632" stroke="#063F58" stroke-width="6" stroke-linecap="round" stroke-linejoin="round"/>
<path d="M53.666 138.848C57.6136 143.85 63.3155 145.287 65.196 145.246C66.1408 145.259 67.0748 145.044 67.9189 144.62C68.763 144.195 69.4923 143.573 70.0451 142.807" stroke="#063F58" stroke-width="6" stroke-linecap="round" stroke-linejoin="round"/>
<path d="M70.8496 157.736C72.4242 156.763 73.6978 155.372 74.5288 153.718C75.3597 152.064 75.7153 150.212 75.5561 148.368" stroke="#063F58" stroke-width="6" stroke-linecap="round" stroke-linejoin="round"/>
<path d="M422.285 100.221C416.682 101.71 411.79 105.14 408.481 109.9" stroke="#063F58" stroke-width="6" stroke-linecap="round" stroke-linejoin="round"/>
<path d="M421.439 84.1689C415.362 85.7002 410.125 89.5479 406.847 94.8894" stroke="#063F58" stroke-width="6" stroke-linecap="round" stroke-linejoin="round"/>
<path d="M436.844 128.494C436.834 126.178 435.944 123.952 434.355 122.268C432.765 120.583 430.595 119.566 428.284 119.421" stroke="#063F58" stroke-width="6" stroke-linecap="round" stroke-linejoin="round"/>
<path d="M435.657 117.52C435.075 118.975 434.325 120.356 433.421 121.636" stroke="#063F58" stroke-width="6" stroke-linecap="round" stroke-linejoin="round"/>
<path d="M261.78 168.467C264.284 174.855 266.204 186.425 275.452 183.272C279.382 181.981 282.385 179.934 286.736 180.016C291.139 180.081 295.366 181.759 298.616 184.73C299.258 185.391 300.129 185.781 301.049 185.819C301.97 185.857 302.87 185.541 303.564 184.935C307.391 181.447 318.957 167.782 307.921 165.649C301.702 164.471 293.713 166.509 287.392 166.135C281.071 165.762 275.768 163.668 269.42 163.279C268.618 163.209 267.819 163.447 267.187 163.945C264.959 161.843 260.323 164.822 261.78 168.467Z" fill="#063F58"/>
<path d="M76.4023 107.969C77.8707 108.464 79.2248 109.249 80.3849 110.276C81.5449 111.304 82.4874 112.553 83.1565 113.951" stroke="#063F58" stroke-width="6" stroke-linecap="round" stroke-linejoin="round"/>
</g>
<defs>
<clipPath id="clip0_5076_3231">
<rect width="607.3" height="407.66" fill="white" transform="translate(75.9082) rotate(10.7313)"/>
</clipPath>
</defs>
</svg>
