<svg width="314" height="368" viewBox="0 0 314 368" fill="none" xmlns="http://www.w3.org/2000/svg">
<g opacity="0.25" clip-path="url(#clip0_1344_1814)">
<path d="M311.976 324.382C309.052 316.135 302.129 308.431 293.98 305.679C298.351 292.977 297.505 278.871 288.961 267.264C275.675 249.224 247.499 246.803 230.38 260.846C223.209 266.808 218.461 275.173 217.023 284.374C207.95 279.115 195.107 283.444 187.306 289.523C180.382 294.924 175.846 302.178 172.953 310.158C169.689 275.078 162.086 240.322 146.223 208.704C143.473 203.224 140.691 196.553 136.66 191.87C132.764 187.32 126.607 192.13 122.505 194.235C122.165 194.386 121.866 194.615 121.631 194.902C121.396 195.19 121.233 195.529 121.153 195.891C120.229 196.68 120.837 197.831 121.54 199.226C123.398 202.924 126.883 212.914 131.428 227.809C135.972 242.703 143.576 285.187 143.481 315.496C140.028 313.512 136.108 312.48 132.123 312.508C130.195 304.418 123.524 297.605 116.071 293.765C111.086 291.173 105.589 289.709 99.9723 289.476C94.3553 289.243 88.7558 290.247 83.5719 292.417C69.5273 298.449 61.3076 311.451 60.043 325.368C57.5839 325.346 55.1466 325.829 52.8824 326.787C48.243 328.758 42.4418 333.095 40.4501 337.826C38.1581 343.345 37.842 351.727 39.3989 357.396C40.7426 362.269 44.0383 366.195 48.8832 367.78C49.1501 367.872 49.4308 367.917 49.7131 367.914C49.8104 367.922 49.9082 367.922 50.0055 367.914H296.596C297.073 367.934 297.546 367.817 297.958 367.576C298.37 367.336 298.704 366.982 298.92 366.558C300.093 365.885 301.126 364.994 301.963 363.932C302.163 363.818 302.348 363.68 302.516 363.522C307.619 358.544 311.213 352.231 312.886 345.309C314.56 338.387 314.244 331.134 311.976 324.382Z" fill="#0AB39C"/>
<path d="M164.528 178.709C157.679 170.089 149.747 162.383 140.928 155.78C140.591 155.531 140.194 155.376 139.778 155.331C139.361 155.285 138.94 155.35 138.557 155.52L90.0531 177.384C89.5284 177.622 89.1083 178.041 88.8712 178.565C88.6341 179.089 88.5963 179.681 88.7649 180.231L90.5669 186.121C92.3294 194.557 96.3839 209.467 98.6443 217.66C98.9089 218.631 99.4008 219.525 100.08 220.27C100.758 221.014 101.605 221.587 102.549 221.941C103.383 222.267 104.278 222.412 105.173 222.367C106.297 222.312 107.387 221.964 108.334 221.358C113.582 218.007 122.149 212.535 127.88 208.9C138.837 202.055 150.184 195.852 161.865 190.323C162.901 189.831 163.813 189.112 164.532 188.219C165.25 187.326 165.757 186.283 166.014 185.167C166.274 184.048 166.275 182.886 166.018 181.767C165.76 180.648 165.251 179.602 164.528 178.709Z" fill="#063F58"/>
<path d="M43.0108 213.434C36.5378 214.049 30.9105 211.762 27.1642 206.756C23.7815 202.222 22.5406 196.576 21.5527 191.175L21.0074 188.195C14.4 151.988 9.61834 125.826 5.42156 90.0209C5.02638 86.6699 4.59168 83.24 4.15699 79.7707C2.93194 70.0566 1.65946 60.0114 1.11412 50.518C0.995562 48.5941 0.837493 46.623 0.671519 44.5335C-0.031897 35.8602 -0.822255 25.9805 1.95189 17.3466C4.82878 8.41313 11.9578 2.27879 21.5053 0.536249C29.8988 -1.04071 38.8298 0.835828 48.7883 6.15808C66.3737 15.5568 83.2952 26.9504 99.6555 37.9655L104.777 41.4111C123.003 53.6484 141.133 66.5479 158.608 79.7392C160.292 81.0087 162.022 82.2544 163.848 83.5712C170.606 88.4283 177.585 93.4588 182.643 100.129C189.076 108.582 188.792 118.785 181.852 127.434C176.114 134.625 168.156 140.641 161.129 145.948L159.47 147.202C151.795 153.021 143.275 158.784 133.427 164.832C121.019 172.449 108.065 179.537 95.5378 186.397C89.5864 189.654 83.4216 193.028 77.415 196.411C74.5064 198.043 71.5505 199.856 68.7211 201.615C63.1886 204.997 57.498 208.506 51.4676 211.163C48.7879 212.364 45.933 213.131 43.0108 213.434Z" fill="#DFDFDF"/>
<path d="M54.1001 133.42C50.9248 131.4 48.1027 128.875 45.746 125.945C31.8753 108.598 37.8425 79.243 56.7635 68.0308C70.9899 59.602 90.7488 62.0068 102.557 73.5502C105.756 76.6681 108.333 80.3631 110.152 84.4392C114.104 93.3963 113.851 103.954 110.215 113.053C105.884 123.903 100.731 130.494 89.8162 135.415C86.7754 136.832 83.5792 137.89 80.2924 138.568C71.223 140.238 61.8566 138.397 54.1001 133.42Z" fill="#0AB39C"/>
<path d="M5.39823 63.8823C4.92152 63.8815 4.45613 63.7374 4.06277 63.4687C3.6694 63.2001 3.36633 62.8194 3.19313 62.3763C3.07949 62.0864 3.02433 61.7769 3.03078 61.4658C3.03723 61.1546 3.10518 60.8478 3.23073 60.5628C3.35629 60.2779 3.53699 60.0205 3.76245 59.8053C3.98792 59.5902 4.25371 59.4215 4.54463 59.3091C27.1822 50.5538 47.9764 37.6474 65.8524 21.257C66.0823 21.0472 66.3513 20.8846 66.6441 20.7786C66.937 20.6726 67.2479 20.6252 67.5591 20.6391C67.8703 20.653 68.1757 20.728 68.4579 20.8597C68.7401 20.9914 68.9935 21.1773 69.2036 21.4068C69.6268 21.8685 69.8494 22.4786 69.8228 23.1037C69.7961 23.7288 69.5223 24.3179 69.0613 24.742C50.7495 41.5304 29.4486 54.7497 6.25971 63.7167C5.98537 63.8248 5.69321 63.8811 5.39823 63.8823Z" fill="#063F58"/>
<path d="M73.7879 141.579C66.3527 141.55 59.0797 139.408 52.8198 135.406C49.4265 133.25 46.4096 130.554 43.8888 127.426C36.989 118.8 34.3097 106.926 36.5306 94.7594C38.8147 82.2935 45.7461 71.8067 55.5465 65.9956C70.7293 57.0069 91.65 59.5458 104.225 71.9013C107.637 75.2277 110.384 79.1721 112.318 83.5235C116.404 92.7882 116.443 103.882 112.42 113.959C108.398 124.036 103.142 132.023 90.7964 137.613C87.5895 139.104 84.2178 140.213 80.751 140.917C78.457 141.363 76.125 141.585 73.7879 141.579ZM55.3806 131.424C62.6152 136.088 71.3624 137.82 79.8341 136.265C82.9406 135.631 85.9618 134.636 88.8363 133.3C98.4075 128.972 103.608 123.255 108.018 112.216C111.575 103.299 111.559 93.5373 107.979 85.408C106.276 81.6004 103.862 78.1511 100.866 75.2445C89.8005 64.3477 71.322 62.1084 57.9413 70.0405C49.4371 75.0789 43.1696 84.6274 41.1621 95.5794C39.1941 106.374 41.5257 116.868 47.564 124.446C49.7592 127.174 52.3893 129.524 55.349 131.4L55.3806 131.424Z" fill="#063F58"/>
<path d="M58.6763 101.013C58.0662 101.013 57.4793 100.779 57.0377 100.359C56.5961 99.9394 56.3337 99.3658 56.3053 98.7577L56.0681 93.9164C56.0381 93.2902 56.2584 92.6776 56.6808 92.2134C57.1032 91.7492 57.693 91.4712 58.3207 91.4406C58.6321 91.4247 58.9437 91.4702 59.2375 91.5746C59.5313 91.679 59.8015 91.8402 60.0328 92.0489C60.2641 92.2576 60.4518 92.5099 60.5852 92.7911C60.7186 93.0723 60.7951 93.377 60.8103 93.6878L61.0474 98.529C61.0623 98.8398 61.0156 99.1503 60.91 99.443C60.8044 99.7357 60.6419 100.005 60.432 100.235C60.222 100.465 59.9686 100.651 59.6863 100.783C59.4041 100.915 59.0985 100.991 58.787 101.005L58.6763 101.013Z" fill="#063F58"/>
<path d="M74.7515 94.6026C74.1414 94.6033 73.5545 94.3693 73.1129 93.9493C72.6712 93.5293 72.4089 92.9556 72.3805 92.3476L72.1433 87.5063C72.1133 86.8801 72.3336 86.2675 72.756 85.8032C73.1783 85.339 73.7682 85.0611 74.3959 85.0304C74.7073 85.0145 75.0189 85.06 75.3127 85.1644C75.6065 85.2688 75.8768 85.43 76.108 85.6387C76.3393 85.8475 76.527 86.0997 76.6604 86.3809C76.7938 86.6622 76.8703 86.9668 76.8855 87.2776L77.1226 92.1189C77.1375 92.4296 77.0908 92.7402 76.9852 93.0329C76.8796 93.3256 76.7171 93.5946 76.5072 93.8245C76.2972 94.0545 76.0438 94.2409 75.7615 94.3731C75.4793 94.5052 75.1737 94.5806 74.8622 94.5947L74.7515 94.6026Z" fill="#063F58"/>
<path d="M71.6216 113.359C68.9552 113.373 66.3401 112.629 64.0816 111.215C63.8187 111.047 63.5915 110.83 63.413 110.575C63.2344 110.319 63.1082 110.032 63.0414 109.728C62.9746 109.424 62.9685 109.11 63.0236 108.803C63.0787 108.497 63.1938 108.204 63.3624 107.943C63.7026 107.416 64.238 107.046 64.8514 106.913C65.4648 106.78 66.106 106.895 66.6345 107.233C67.938 108.04 69.4202 108.516 70.9511 108.62C72.4819 108.723 74.0148 108.45 75.4153 107.824C76.8051 107.162 78.0096 106.168 78.9223 104.93C79.8349 103.692 80.4275 102.249 80.6475 100.728C80.6892 100.42 80.7915 100.123 80.9485 99.8543C81.1054 99.5856 81.3139 99.3504 81.562 99.1622C81.8101 98.974 82.093 98.8364 82.3945 98.7574C82.6959 98.6783 83.01 98.6594 83.3189 98.7016C83.6277 98.7433 83.9254 98.8453 84.1947 99.0019C84.464 99.1584 84.6997 99.3664 84.8884 99.6139C85.077 99.8614 85.2149 100.144 85.2941 100.444C85.3734 100.745 85.3924 101.059 85.3501 101.367C85.0066 103.665 84.1026 105.844 82.7177 107.712C81.3327 109.581 79.5091 111.081 77.407 112.082C75.5933 112.919 73.6198 113.354 71.6216 113.359Z" fill="#063F58"/>
<path d="M91.2468 135.887C90.7405 135.886 90.248 135.723 89.8412 135.422C89.4345 135.121 89.1349 134.699 88.9864 134.216C87.4401 128.812 86.3457 123.289 85.7143 117.705C85.3762 116.047 85.5527 114.325 86.2202 112.769C86.5412 112.144 86.9942 111.595 87.5482 111.161C88.1021 110.726 88.7438 110.417 89.429 110.254C90.3197 110.032 91.2595 110.121 92.0925 110.506C92.2901 108.409 92.543 106.335 92.8038 104.293C93.0409 102.416 93.3333 100.083 94.669 98.0719C96.1549 95.8405 99.3322 94.1295 102.272 95.3832C102.725 95.5756 103.106 95.9034 103.363 96.3214C103.932 94.7839 105.039 92.9468 107.244 92.4185C110.081 91.7325 112.381 93.8772 113.25 94.6814C113.709 95.1101 113.979 95.7032 114 96.3302C114.02 96.9571 113.791 97.5666 113.361 98.0246C113.149 98.2518 112.894 98.4352 112.61 98.5641C112.327 98.6931 112.021 98.7651 111.71 98.7761C111.399 98.7871 111.088 98.7368 110.797 98.6282C110.505 98.5195 110.238 98.3546 110.01 98.1429C108.769 96.9838 108.366 97.0153 108.35 97.0153C108.334 97.0153 107.892 97.2676 107.465 99.2152L105.094 110.112C104.971 110.674 104.647 111.172 104.183 111.513C103.719 111.854 103.147 112.015 102.573 111.965C102 111.916 101.465 111.661 101.066 111.248C100.668 110.834 100.434 110.291 100.407 109.718C100.258 106.452 99.9149 103.198 99.3796 99.9721C99.0833 100.158 98.8279 100.402 98.6287 100.69C97.9016 101.778 97.704 103.355 97.5143 104.877C96.9374 109.473 96.3446 114.228 96.5817 118.833C96.6121 119.391 96.443 119.943 96.1044 120.389C95.7658 120.835 95.2796 121.147 94.7323 121.269C94.1861 121.391 93.6144 121.316 93.1183 121.058C92.6222 120.799 92.2336 120.374 92.0214 119.858L90.3063 115.694C90.3199 116.164 90.3595 116.633 90.4248 117.098C91.0201 122.431 92.0564 127.705 93.523 132.868C93.7052 133.468 93.641 134.115 93.3446 134.668C93.0482 135.221 92.5438 135.634 91.9423 135.817C91.7153 135.874 91.4809 135.898 91.2468 135.887Z" fill="#063F58"/>
<path d="M165.982 141.02C165.49 141.022 165.01 140.872 164.608 140.589C164.206 140.306 163.902 139.906 163.738 139.443C156.775 118.848 152.459 96.5659 148.99 78.6516C148.871 78.0357 149.003 77.3983 149.356 76.8793C149.709 76.3604 150.253 76.0024 150.871 75.884C151.488 75.7661 152.127 75.8976 152.647 76.2494C153.167 76.6013 153.526 77.1448 153.645 77.7606C157.091 95.5251 161.374 117.642 168.227 137.93C168.428 138.523 168.384 139.173 168.105 139.734C167.827 140.296 167.336 140.725 166.741 140.926C166.495 140.999 166.239 141.031 165.982 141.02Z" fill="#063F58"/>
<path d="M62.9124 203.9C62.577 203.902 62.245 203.832 61.9385 203.697C61.6319 203.561 61.3578 203.361 61.1341 203.112C47.8534 187.97 33.2479 174.038 17.4908 161.48C17.2489 161.284 17.0481 161.043 16.8997 160.77C16.7513 160.497 16.6584 160.197 16.6261 159.888C16.5938 159.579 16.6228 159.267 16.7115 158.969C16.8002 158.671 16.9468 158.394 17.143 158.153C17.3392 157.911 17.581 157.711 17.8548 157.563C18.1286 157.415 18.4289 157.322 18.7386 157.29C19.0484 157.258 19.3614 157.287 19.6599 157.375C19.9584 157.464 20.2365 157.61 20.4783 157.806C36.443 170.531 51.2414 184.648 64.6986 199.99C65.1122 200.461 65.3211 201.077 65.2796 201.703C65.2381 202.328 64.9496 202.912 64.4773 203.325C64.0428 203.699 63.4867 203.904 62.9124 203.9Z" fill="#063F58"/>
<path d="M110.247 214.294C109.768 214.295 109.301 214.152 108.906 213.883C108.511 213.614 108.207 213.233 108.034 212.788C107.978 212.631 101.877 196.964 98.731 187.786C98.6303 187.492 98.5885 187.181 98.6083 186.87C98.628 186.56 98.7088 186.257 98.8461 185.978C98.9833 185.699 99.1743 185.45 99.4082 185.245C99.642 185.039 99.9142 184.882 100.209 184.782C100.504 184.681 100.816 184.639 101.126 184.659C101.437 184.679 101.741 184.759 102.021 184.896C102.301 185.033 102.55 185.224 102.756 185.457C102.962 185.69 103.12 185.962 103.22 186.256C106.326 195.339 112.396 210.92 112.46 211.07C112.573 211.359 112.628 211.669 112.622 211.98C112.615 212.291 112.547 212.598 112.422 212.883C112.296 213.168 112.116 213.425 111.89 213.64C111.665 213.856 111.399 214.024 111.108 214.137C110.833 214.242 110.541 214.296 110.247 214.294Z" fill="#063F58"/>
<path d="M124.67 207.496C124.217 207.497 123.772 207.368 123.39 207.125C123.007 206.882 122.703 206.535 122.512 206.124C120.465 201.685 118.648 197.869 116.893 194.171C115.138 190.473 113.313 186.633 111.25 182.17C111.117 181.887 111.042 181.581 111.029 181.268C111.015 180.956 111.064 180.645 111.172 180.351C111.28 180.058 111.445 179.789 111.658 179.56C111.871 179.331 112.127 179.146 112.412 179.016C112.695 178.884 113.002 178.808 113.315 178.795C113.628 178.782 113.941 178.83 114.235 178.938C114.528 179.046 114.798 179.211 115.028 179.423C115.258 179.635 115.443 179.891 115.573 180.175C117.62 184.606 119.438 188.43 121.193 192.128C122.947 195.826 124.773 199.666 126.836 204.121C126.968 204.404 127.044 204.711 127.057 205.023C127.07 205.335 127.022 205.646 126.914 205.94C126.806 206.233 126.64 206.502 126.428 206.731C126.215 206.96 125.959 207.145 125.674 207.275C125.36 207.423 125.017 207.498 124.67 207.496Z" fill="#063F58"/>
<path d="M141.205 197.081C140.784 197.081 140.369 196.97 140.006 196.758C139.642 196.546 139.341 196.241 139.134 195.874C135.071 188.649 130.505 181.717 125.469 175.129C125.28 174.882 125.141 174.6 125.061 174.299C124.982 173.998 124.962 173.685 125.004 173.376C125.046 173.068 125.148 172.771 125.305 172.502C125.462 172.233 125.671 171.998 125.92 171.81C126.167 171.621 126.45 171.483 126.752 171.403C127.053 171.323 127.368 171.304 127.677 171.346C127.986 171.387 128.284 171.49 128.553 171.646C128.823 171.803 129.058 172.011 129.247 172.259C134.408 179.025 139.096 186.138 143.276 193.548C143.582 194.095 143.659 194.741 143.488 195.344C143.318 195.947 142.915 196.458 142.367 196.765C142.013 196.968 141.613 197.077 141.205 197.081Z" fill="#063F58"/>
<path d="M155.399 189.385C154.998 189.385 154.604 189.284 154.253 189.091C153.902 188.898 153.606 188.619 153.392 188.281C148.869 181.151 143.608 174.515 137.695 168.482C137.257 168.034 137.014 167.429 137.022 166.802C137.029 166.176 137.286 165.577 137.735 165.139C138.185 164.701 138.79 164.46 139.419 164.467C140.047 164.474 140.647 164.73 141.086 165.179C147.235 171.447 152.708 178.342 157.415 185.75C157.581 186.012 157.695 186.305 157.748 186.611C157.801 186.917 157.793 187.231 157.725 187.534C157.657 187.837 157.529 188.124 157.35 188.378C157.171 188.632 156.943 188.848 156.68 189.014C156.297 189.257 155.853 189.386 155.399 189.385Z" fill="#063F58"/>
<path d="M73.3368 151.19C64.1451 151.157 55.1531 148.512 47.4132 143.566C43.209 140.904 39.471 137.571 36.3482 133.702C27.8203 123.041 24.4929 108.313 27.2592 93.2842C30.0412 78.0744 38.8378 64.7727 50.7801 57.6922C69.551 46.5667 95.4352 49.7048 110.981 64.9935C115.227 69.0982 118.647 73.9744 121.058 79.3597C126.109 90.8084 126.156 104.528 121.177 117.002C116.198 129.476 109.685 139.371 94.4077 146.278C90.4379 148.12 86.2653 149.49 81.9754 150.362C79.1301 150.921 76.2366 151.198 73.3368 151.19ZM49.966 139.576C59.1513 145.504 70.2607 147.704 81.0191 145.726C84.9501 144.917 88.7744 143.657 92.416 141.973C104.556 136.454 111.147 129.231 116.727 115.251C121.24 103.952 121.224 91.5969 116.68 81.2678C114.529 76.4336 111.474 72.0529 107.678 68.3603C93.6173 54.5382 70.207 51.6997 53.2302 61.7607C42.4419 68.1474 34.4909 80.2507 31.946 94.1358C29.4405 107.816 32.4123 121.165 40.0787 130.745C42.8681 134.208 46.2082 137.192 49.966 139.576Z" fill="#063F58"/>
</g>
<defs>
<clipPath id="clip0_1344_1814">
<rect width="314" height="368" fill="white"/>
</clipPath>
</defs>
</svg>
